<svg width="147" height="36" viewBox="0 0 147 36" fill="none" xmlns="http://www.w3.org/2000/svg">
<g clip-path="url(#clip0_25_522)">
<path fill-rule="evenodd" clip-rule="evenodd" d="M44.0129 18.2303V13.381C44.6662 12.6407 45.2954 12.306 45.9953 12.306C47.3711 12.306 48.0003 13.381 48.0003 15.5068C48.0003 17.9433 47.0444 18.9947 45.855 18.9947C45.2724 18.9947 44.6196 18.8037 44.0129 18.2303ZM67.9575 21.5745H69.5703V19.9225V19.7151V13.5721C70.3168 12.8318 70.8529 12.4258 71.7156 12.4258C72.6951 12.4258 73.138 12.9509 73.138 14.6707V21.5745H76.5663V14.2174C76.5663 11.2553 75.4932 9.43948 72.9751 9.43948C71.4125 9.43948 70.2697 10.2758 69.407 11.0638L69.5703 8.93792V6.73608V6.43371V4.82892H68.0041H67.7087C66.8793 4.90233 66.2137 5.58408 66.1425 6.43371V6.73608V19.7151V19.9225C66.1932 20.808 66.8905 21.5226 67.7548 21.5745H67.9575ZM90.8839 20.213C92.0497 21.192 93.7982 21.861 95.3142 21.861C98.4154 21.861 100.071 20.1889 100.071 18.0389C100.071 15.8653 98.4154 15.029 96.9465 14.4797C95.7571 14.0259 94.6845 13.7395 94.6845 12.975C94.6845 12.3775 95.1043 12.0433 95.9906 12.0433C96.8067 12.0433 97.5993 12.4257 98.439 13.0464L99.978 10.9442C98.975 10.1803 97.6694 9.43948 95.8969 9.43948C93.2155 9.43948 91.4666 10.9442 91.4666 13.1424C91.4666 15.1009 93.1224 16.0804 94.5211 16.6297C95.7105 17.1077 96.8763 17.466 96.8763 18.254C96.8763 18.8752 96.4335 19.2571 95.4074 19.2571C94.428 19.2571 93.4721 18.8275 92.4225 18.0153L90.8839 20.213ZM105.085 18.0154C105.085 17.1077 105.877 16.3911 108.326 16.0564V18.135C107.719 18.7557 107.206 19.1381 106.414 19.1381C105.598 19.1381 105.085 18.7798 105.085 18.0154ZM82.3022 18.0154C82.3022 17.1077 83.0953 16.3911 85.5437 16.0564V18.135C84.9375 18.7557 84.4245 19.1381 83.6314 19.1381C82.8152 19.1381 82.3022 18.7798 82.3022 18.0154ZM42.4492 21.5745H43.2669L43.3493 21.2095L43.5464 20.3321H43.6401C43.7108 20.4102 43.7824 20.4856 43.8546 20.5575C44.7158 21.4138 45.7019 21.861 46.6481 21.861C49.1431 21.861 51.5218 19.5205 51.5218 15.4356C51.5218 11.8046 49.7728 9.43947 46.9743 9.43947C45.9016 9.43947 44.8059 9.94104 43.9197 10.7532L44.0128 8.93791V6.64521L44.0139 6.58514L44.0128 6.52457V4.82891H42.3581L42.2992 4.82788C41.3561 4.82788 40.584 5.61796 40.584 6.58463L40.585 6.64521V19.6648V19.9789C40.6587 20.8224 41.3197 21.499 42.1425 21.5745H42.4492ZM101.82 18.2782C101.82 20.2844 103.149 21.861 105.248 21.861C106.478 21.861 107.522 21.3101 108.458 20.5067C108.516 20.4574 108.572 20.4071 108.629 20.3563H108.699L108.854 21.0904L108.955 21.5745H109.908H110.171C111.013 21.5083 111.689 20.8152 111.754 19.9538V19.6838V14.7903C111.754 11.1593 110.121 9.43948 107.16 9.43948C105.889 9.43948 104.697 9.75469 103.593 10.2547C103.483 10.304 103.375 10.3553 103.268 10.4082C102.908 10.6449 102.668 11.0581 102.668 11.5263C102.668 11.7317 102.714 11.9262 102.796 12.1003L102.846 12.1963L103.429 13.3093C104.548 12.6408 105.528 12.2343 106.507 12.2343C107.743 12.2343 108.256 12.9032 108.326 13.954C103.756 14.432 101.82 15.794 101.82 18.2782ZM79.0378 18.2782C79.0378 20.2844 80.3669 21.861 82.4656 21.861C83.696 21.861 84.7404 21.3101 85.6759 20.5067C85.7332 20.4574 85.7905 20.4071 85.8469 20.3563H85.917L86.0711 21.0904L86.173 21.5745H87.1258H87.3895C88.2302 21.5083 88.9066 20.8152 88.9716 19.9538V19.6838V14.7903C88.9716 11.1593 87.3393 9.43948 84.3779 9.43948C83.1061 9.43948 81.9142 9.75469 80.8108 10.2547C80.7013 10.304 80.5932 10.3553 80.4852 10.4082C80.1258 10.6449 79.8862 11.0581 79.8862 11.5263C79.8862 11.7317 79.9322 11.9262 80.0142 12.1003L80.0643 12.1963L80.6465 13.3093C81.7662 12.6408 82.7452 12.2343 83.7246 12.2343C84.9606 12.2343 85.4736 12.9032 85.5438 13.954C80.9731 14.432 79.0378 15.794 79.0378 18.2782ZM56.5353 18.0154C56.5353 17.1077 57.3279 16.3911 59.7763 16.0564V18.135C59.1701 18.7557 58.657 19.1381 57.8645 19.1381C57.0483 19.1381 56.5353 18.7798 56.5353 18.0154ZM53.2703 18.2782C53.2703 20.2844 54.5994 21.861 56.6981 21.861C57.929 21.861 58.9729 21.3101 59.9084 20.5067C59.9662 20.4574 60.023 20.4071 60.0794 20.3563H60.1495L60.3041 21.0904L60.406 21.5745H61.3583H61.622C62.4632 21.5083 63.1396 20.8152 63.2041 19.9538V19.6838V14.7903C63.2041 11.1593 61.5718 9.43948 58.6104 9.43948C57.3391 9.43948 56.1472 9.75469 55.0433 10.2547C54.9338 10.304 54.8257 10.3553 54.7182 10.4082C54.3583 10.6449 54.1187 11.0581 54.1187 11.5263C54.1187 11.7317 54.1647 11.9262 54.2467 12.1003L54.2968 12.1963L54.8795 13.3093C55.9987 12.6408 56.9782 12.2343 57.9576 12.2343C59.1936 12.2343 59.7066 12.9032 59.7763 13.954C55.2061 14.432 53.2703 15.794 53.2703 18.2782Z" fill="#18181A"/>
<path fill-rule="evenodd" clip-rule="evenodd" d="M117.109 19.8498V18.4457L119.627 15.4358L123.335 21.5747H124.477L120.233 14.6473L123.871 10.1086H122.682L117.155 17.0601H117.109V4.95231V4.89738V4.39941H116.623H116.569C116.307 4.41328 116.096 4.6294 116.083 4.89738V4.95231V17.172V19.8498V21.0218V21.0762C116.096 21.3447 116.307 21.5608 116.569 21.5747H116.623H117.109V21.0762V21.0218V19.8498ZM126.903 21.5745H127.929V10.1084H126.903V21.5745ZM132.499 18.3974C132.499 20.4519 133.128 21.8611 135.297 21.8611C135.764 21.8611 136.463 21.6701 137.116 21.4314L136.836 20.5715C136.44 20.7625 135.857 20.9299 135.437 20.9299C133.898 20.9299 133.548 19.9504 133.548 18.4934V11.0162H136.789V10.1086H133.548V7.30608C133.55 7.28811 133.551 7.27066 133.551 7.25269C133.551 7.23421 133.55 7.21675 133.548 7.19878V6.78809H133.147C133.13 6.78603 133.113 6.78501 133.095 6.78501C132.862 6.78501 132.668 6.96623 132.642 7.19878L132.639 7.26501L132.641 7.2953L132.522 10.1086L130.75 10.204V11.0162H132.499V18.3974ZM139.471 18.6601C139.471 16.8448 141.034 15.7457 145.628 15.1964V19.0903C144.252 20.3085 143.109 20.9533 141.826 20.9533C140.544 20.9533 139.471 20.3085 139.471 18.6601ZM138.399 18.7079C138.399 20.882 139.891 21.861 141.664 21.861C143.132 21.861 144.485 21.0252 145.627 20.0935H145.674L145.741 20.9405L145.771 21.3204L145.791 21.5745H146.149H146.221C146.451 21.5566 146.636 21.3677 146.654 21.132V21.0581V14.2411C146.654 11.7805 145.767 9.82199 143.109 9.82199C141.552 9.82199 140.201 10.4863 139.347 11.0377L139.335 11.0438L139.334 11.0448L139.326 11.0505L139.316 11.0561L139.307 11.0623L139.306 11.0633C139.188 11.146 139.111 11.2841 139.111 11.4412C139.111 11.5069 139.125 11.57 139.149 11.6265L139.206 11.7235L139.21 11.7266L139.425 12.0911C140.444 11.3067 141.718 10.7532 142.993 10.7532C145.184 10.7532 145.674 12.6409 145.627 14.3843C140.661 14.9577 138.399 16.176 138.399 18.7079Z" fill="#18181A"/>
<path fill-rule="evenodd" clip-rule="evenodd" d="M40.9444 25.9662H41.969C42.7569 25.9662 42.9658 26.5197 42.9658 26.9237C42.9658 27.1778 42.7569 27.8349 41.969 27.8349H40.9444V25.9662ZM40.584 25.7186V29.8364H40.9444V28.1007H41.9689C43.0554 28.1007 43.3933 27.4492 43.3933 26.924C43.3933 26.3645 43.0334 25.7125 41.9689 25.7125L40.584 25.7186ZM48.0679 25.7121H44.6396V25.96H46.1873V29.836H46.5647V25.96H48.0679V25.7121ZM49.0664 29.836H49.5446V29.3519H49.0664V29.836ZM56.7023 27.7194H57.8507C58.5547 27.7194 59.039 28.0659 59.039 28.6655C59.039 29.2944 58.7462 29.7149 57.5465 29.6861L56.7023 29.6461V27.7194ZM56.7023 27.4602V25.9601H57.6372C58.3857 25.9601 58.6786 26.2558 58.6786 26.725C58.6786 27.2517 58.3632 27.4602 57.5977 27.4602H56.7023ZM56.3362 25.7121C56.3362 27.1249 56.3474 28.435 56.3474 29.8421C56.4831 29.8596 56.8374 29.894 57.8507 29.9114C59.1737 29.9397 59.4834 29.3344 59.4834 28.7117C59.4834 28.0079 58.9371 27.6675 58.2843 27.5582C58.7513 27.495 59.101 27.2224 59.101 26.725C59.101 26.1633 58.7405 25.7121 57.6315 25.7121H56.3362ZM63.3695 28.0255H61.855L62.6548 25.9028L63.3695 28.0255ZM60.7855 29.836H61.1746L61.7988 28.2671H63.4428L63.9497 29.836H64.3665L62.9533 25.7121H62.3738L60.7855 29.836ZM68.917 27.6388H66.3723V25.7121H65.9663V29.836H66.3723V27.898H68.917V29.836H69.2825V25.7121H68.917V27.6388ZM73.3658 28.0255H71.8513L72.651 25.9028L73.3658 28.0255ZM70.7818 29.836H71.1704L71.795 28.2671H73.439L73.9459 29.836H74.3627L72.9491 25.7121H72.3695L70.7818 29.836ZM78.4291 25.8624C78.2145 25.7531 77.8884 25.6201 77.1567 25.6201C76.2387 25.6201 75.7544 26.1222 75.7544 26.6581C75.7544 27.3219 76.2444 27.6217 77.1004 27.8697H77.0948C78.0737 28.1346 78.1249 28.5905 78.1249 28.8559C78.1249 29.3112 77.6462 29.6747 77.0328 29.6747C76.5142 29.6747 76.036 29.4493 75.7544 29.2363V29.6172C75.952 29.7553 76.3739 29.9514 77.0328 29.9514C77.573 29.9514 78.553 29.761 78.553 28.8559C78.553 27.979 77.7025 27.708 77.0774 27.5114C76.5203 27.3563 76.1988 27.1484 76.1988 26.6638C76.1988 26.1566 76.6381 25.8681 77.1506 25.8681C77.5617 25.8681 77.9048 25.9081 78.4291 26.1566V25.8624ZM82.4498 28.0255H80.9353L81.7351 25.9028L82.4498 28.0255ZM79.8656 29.836H80.2542L80.8789 28.2671H82.5229L83.0298 29.836H83.4466L82.0329 25.7121H81.4533L79.8656 29.836ZM90.1365 28.0659V25.7121H89.7765V29.836H90.1365V28.5094L90.9306 27.6218L92.3601 29.836H92.7994L91.1728 27.322L92.4952 25.7121H92.1123L90.1365 28.0659ZM94.4449 29.836H94.8053V25.7121H94.4449V29.836ZM96.8907 29.836H97.2507V25.9503L99.61 29.836H100.032V25.7121H99.6602V29.3965L97.4253 25.7121H96.8907V29.836ZM101.965 29.836H104.436V29.588H102.319V27.8636H103.788V27.6157H102.319V25.9549H104.301V25.7121H101.965V29.836ZM106.56 27.5464V25.9662H107.557C108.266 25.9662 108.508 26.3877 108.508 26.7507C108.508 27.091 108.306 27.5464 107.557 27.5464H106.56ZM106.205 25.7121V29.836H106.56V27.8287H107.692C107.945 27.8287 108.091 27.9391 108.204 28.187C108.232 28.2502 108.395 28.6711 108.846 29.836H109.218L108.638 28.3539C108.519 28.0541 108.407 27.783 108.018 27.6911C108.407 27.6444 108.891 27.3446 108.891 26.6988C108.891 26.1336 108.469 25.7121 107.557 25.7121H106.205ZM111.15 25.7121V29.9643C111.15 30.3319 111.054 30.5511 110.812 30.7991V31.0126C111.032 30.9664 111.499 30.7821 111.499 29.9643V25.7121H111.15ZM115.701 28.0255H114.186L114.986 25.9028L115.701 28.0255ZM113.117 29.836H113.506L114.13 28.2671H115.774L116.281 29.836H116.697L115.284 25.7121H114.705L113.117 29.836ZM125.802 25.7121V28.071C125.802 28.4458 125.802 29.6399 124.615 29.6399C123.399 29.6399 123.393 28.435 123.393 28.071V25.7121H123.027V28.0253C123.027 28.6886 123.033 29.9114 124.615 29.9114C126.174 29.9114 126.157 28.6942 126.157 28.071V25.7121H125.802ZM131.124 25.7121H127.696V25.96H129.244V29.836H129.621V25.96H131.124V25.7121ZM134.279 28.0255H132.764L133.564 25.9028L134.279 28.0255ZM131.694 29.836H132.083L132.708 28.2671H134.352L134.859 29.836H135.275L133.862 25.7121H133.282L131.694 29.836ZM139.268 29.3519L140.805 25.9436L140.811 29.836H141.171V25.7121H140.535C140.468 25.8918 140.366 26.1105 139.195 28.8041C139.139 28.9366 139.021 29.029 138.919 28.8041L137.557 25.7121H136.87V29.836H137.225C137.225 28.5038 137.241 27.1716 137.241 25.9493L138.852 29.3519H139.268ZM145.232 28.0255H143.717L144.516 25.9028L145.232 28.0255ZM142.648 29.836H143.036L143.661 28.2671H145.305L145.812 29.836H146.228L144.815 25.7121H144.235L142.648 29.836Z" fill="#18181A"/>
<path fill-rule="evenodd" clip-rule="evenodd" d="M31.0413 4.02612C32.9454 7.1012 34.0477 10.7482 34.0477 14.6595C34.0477 18.5704 32.9454 22.2174 31.0413 25.2924L28.4347 23.3786C29.9641 20.8441 30.8473 17.8578 30.8473 14.6595C30.8473 11.4607 29.9641 8.47446 28.4347 5.93996L31.0413 4.02612ZM14.6362 11.4951C16.3422 11.4951 17.7251 12.9115 17.7251 14.6595C17.7251 16.407 16.3422 17.8234 14.6362 17.8234C12.9308 17.8234 11.5479 16.407 11.5479 14.6595C11.5479 12.9115 12.9308 11.4951 14.6362 11.4951ZM22.1627 10.5447C22.8032 11.7706 23.1662 13.1716 23.1662 14.6594C23.1662 16.1466 22.8032 17.5476 22.1627 18.7735L19.5243 16.8366C19.808 16.1692 19.9657 15.433 19.9657 14.6594C19.9657 13.8852 19.808 13.149 19.5243 12.4822L22.1627 10.5447ZM26.6088 7.28028C27.8771 9.43489 28.6072 11.9596 28.6072 14.6594C28.6072 17.3587 27.8771 19.8835 26.6088 22.0381L23.9966 20.1201C24.8936 18.5097 25.4067 16.6457 25.4067 14.6594C25.4067 12.6727 24.8936 10.8087 23.9966 9.19874L26.6088 7.28028Z" fill="#668000"/>
<path fill-rule="evenodd" clip-rule="evenodd" d="M14.6364 0.347656C18.9127 0.347656 22.7394 2.31643 25.3019 5.41615L18.2189 10.6171C17.2727 9.73666 16.0158 9.19968 14.6364 9.19968C11.6935 9.19968 9.30755 11.6443 9.30755 14.6594C9.30755 17.6739 11.6935 20.1185 14.6364 20.1185C16.0158 20.1185 17.2727 19.5815 18.2189 18.7011L25.3019 23.9021C25.0126 24.2517 24.7075 24.5869 24.3875 24.9067L14.6364 35.6182V28.9705C6.92112 28.9705 0.666016 22.5632 0.666016 14.6594C0.666016 6.75501 6.92112 0.347656 14.6364 0.347656Z" fill="#2689FF"/>
<path fill-rule="evenodd" clip-rule="evenodd" d="M31.0413 4.02612C32.9454 7.1012 34.0477 10.7482 34.0477 14.6595C34.0477 18.5704 32.9454 22.2174 31.0413 25.2924L28.4347 23.3786C29.9641 20.8441 30.8473 17.8578 30.8473 14.6595C30.8473 11.4607 29.9641 8.47446 28.4347 5.93996L31.0413 4.02612ZM14.6362 11.4951C16.3422 11.4951 17.7251 12.9115 17.7251 14.6595C17.7251 16.407 16.3422 17.8234 14.6362 17.8234C12.9308 17.8234 11.5479 16.407 11.5479 14.6595C11.5479 12.9115 12.9308 11.4951 14.6362 11.4951ZM22.1627 10.5447C22.8032 11.7706 23.1662 13.1716 23.1662 14.6594C23.1662 16.1466 22.8032 17.5476 22.1627 18.7735L19.5243 16.8366C19.808 16.1692 19.9657 15.433 19.9657 14.6594C19.9657 13.8852 19.808 13.149 19.5243 12.4822L22.1627 10.5447ZM26.6088 7.28028C27.8771 9.43489 28.6072 11.9596 28.6072 14.6594C28.6072 17.3587 27.8771 19.8835 26.6088 22.0381L23.9966 20.1201C24.8936 18.5097 25.4067 16.6457 25.4067 14.6594C25.4067 12.6727 24.8936 10.8087 23.9966 9.19874L26.6088 7.28028Z" fill="#2689FF"/>
</g>
<defs>
<clipPath id="clip0_25_522">
<rect width="147" height="36" fill="white"/>
</clipPath>
</defs>
</svg>
